<?xml version="1.0" encoding="UTF-8"?>
<svg width="1200pt" height="1200pt" version="1.1" viewBox="0 0 1200 1200" xmlns="http://www.w3.org/2000/svg">
 <path d="m305.27 380.84c-28.914 0-52.898 23.984-52.898 52.898v332.52c0 28.914 23.984 52.898 52.898 52.898h589.46c28.914 0 52.898-23.984 52.898-52.898v-332.52c0-28.914-23.984-52.898-52.898-52.898zm30.465 45.344h528.53l-254.58 217.03c-3.7969 3.2383-15.566 3.2383-19.363 0zm-38.023 27.16 181.61 154.68-181.61 140.75zm604.57 0v295.44l-181.61-140.75 181.61-154.69zm-387.78 184.68 46.523 39.676c22.766 19.398 55.168 19.398 77.934 0l46.523-39.676 175.47 135.79h-521.91l175.47-135.79z"/>
</svg>
